# xmcd
#
# Track frame offsets:
#	150
#	19895
#	29462
#	43290
#	57717
#	67420
#	80817
#	97745
#	110679
#	122707
#	136075
#	149885
#	161557
#	175800
#
# Disc length: 2507 seconds
#
# Revision: 1
# Processed by: cddbd v1.5.2PL0 Copyright (c) Steve Scherf et al.
# Submitted via: audiograbber 1.83.01
#
DISCID=d809c90e
DTITLE=Country Hity z radia - Cekej tise, drahy muj
DYEAR=2000
DGENRE=Coutry
TTITLE0=Milan Drobny a Milan Chladil - Po pulnoci
TTITLE1=Drahy muj - Drahy muj
TTITLE2=Milan Drobny - Lod uz vyplouva
TTITLE3=Petra Cernocka - Nakladak
TTITLE4=Tomas Linka a Michal Tucny - Zimni divka
TTITLE5=Vera Martinova - Dala jsem lasku rekam
TTITLE6=Petr Rezek - S pisni lesu, vod a strani
TTITLE7=Michal Tucny - Ja svetem tah jen tak s celtou
TTITLE8=Radek Tomasek - Jizni vitr
TTITLE9=Michal Tucny - Je to zvlastni
TTITLE10=Vera Martinova - Atmosfera letnich bourek
TTITLE11=Vit Tucny - Fandim
TTITLE12=Eva Olmerova - Cekej tise
TTITLE13=Martin Javurek - Pujdu o dum dal
EXTD=without diacritics
EXTT0=
EXTT1=
EXTT2=
EXTT3=
EXTT4=
EXTT5=
EXTT6=
EXTT7=
EXTT8=
EXTT9=
EXTT10=
EXTT11=
EXTT12=
EXTT13=
PLAYORDER=
